<svg width="100" height="57" viewBox="0 0 100 57" fill="none" xmlns="http://www.w3.org/2000/svg">
<path d="M50 57C48.8042 57 47.6472 56.7824 46.5291 56.3473C45.4051 55.9122 44.4694 55.3321 43.722 54.6069L2.46636 14.5763C0.822119 12.9809 0 10.9504 0 8.48473C0 6.01908 0.822119 3.98855 2.46636 2.39313C4.11061 0.797707 6.20329 0 8.74439 0C11.2855 0 13.3782 0.797707 15.0224 2.39313L50 36.3321L84.9776 2.39313C86.6218 0.797707 88.7145 0 91.2556 0C93.7967 0 95.8894 0.797707 97.5336 2.39313C99.1779 3.98855 100 6.01908 100 8.48473C100 10.9504 99.1779 12.9809 97.5336 14.5763L56.278 54.6069C55.3812 55.4771 54.4096 56.0921 53.3632 56.4517C52.3169 56.8172 51.1958 57 50 57Z" fill="white"/>
</svg>
