<svg width="33" height="33" viewBox="0 0 33 33" fill="none" xmlns="http://www.w3.org/2000/svg">
<path d="M24.057 19.7763C23.6435 19.5669 21.6294 18.5842 21.253 18.4439C20.8766 18.3098 20.6033 18.2397 20.329 18.6532C20.0609 19.0565 19.271 19.9794 19.0297 20.2486C18.7883 20.5177 18.5512 20.5384 18.1438 20.3558C17.7303 20.1465 16.4093 19.7165 14.8407 18.3098C13.6156 17.2198 12.7999 15.8771 12.5575 15.4636C12.3162 15.0552 12.5307 14.8242 12.7349 14.62C12.9226 14.4323 13.1484 14.1477 13.3578 13.9002C13.5568 13.6527 13.6208 13.4867 13.7662 13.2186C13.9002 12.9288 13.8311 12.7029 13.729 12.4987C13.6269 12.2946 12.805 10.2702 12.4616 9.46378C12.1337 8.66353 11.7903 8.76562 11.5376 8.76562C11.3015 8.74397 11.0272 8.74397 10.7539 8.74397C10.4806 8.74397 10.0341 8.84606 9.65766 9.23794C9.28125 9.65147 8.21803 10.6394 8.21803 12.638C8.21803 14.6417 9.68962 16.5804 9.89381 16.8702C10.1032 17.1383 12.7885 21.2633 16.9084 23.0361C17.8912 23.4496 18.6543 23.6971 19.2503 23.9013C20.2331 24.2127 21.1303 24.1694 21.8388 24.0673C22.6225 23.9384 24.2663 23.0732 24.6108 22.1069C24.9604 21.1344 24.9604 20.329 24.8583 20.1465C24.7562 19.9588 24.4881 19.8567 24.0745 19.6742L24.057 19.7763ZM16.5856 29.9062H16.5639C14.125 29.9062 11.714 29.2452 9.60816 28.0098L9.11419 27.7148L3.95794 29.0575L5.34394 24.0405L5.01084 23.5249C3.64904 21.3596 2.92658 18.8537 2.92669 16.2958C2.92669 8.80894 9.05541 2.70187 16.5959 2.70187C20.2486 2.70187 23.6754 4.125 26.2536 6.70312C27.5254 7.9598 28.5342 9.45716 29.2212 11.1079C29.9082 12.7586 30.2595 14.5295 30.2548 16.3175C30.2445 23.7992 24.1209 29.9062 16.5907 29.9062H16.5856ZM28.214 4.74272C25.0769 1.71291 20.9519 0 16.5639 0C7.51369 0 0.144375 7.33734 0.139219 16.3546C0.139219 19.2338 0.891 22.043 2.33063 24.5293L0 33L8.712 30.7282C11.1254 32.0294 13.8231 32.7138 16.565 32.7205H16.5701C25.6255 32.7205 32.9948 25.3832 33 16.3598C33 11.9934 31.2974 7.88391 28.1933 4.79531L28.214 4.74272Z" fill="white"/>
</svg>
