<svg width="47" height="47" viewBox="0 0 47 47" fill="none" xmlns="http://www.w3.org/2000/svg">
<path d="M34.263 28.1662C33.674 27.8681 30.8056 26.4683 30.2695 26.2686C29.7334 26.0777 29.3442 25.9778 28.9535 26.5667C28.5716 27.141 27.4465 28.4556 27.1028 28.8389C26.7592 29.2222 26.4213 29.2516 25.8412 28.9917C25.2522 28.6935 23.3708 28.081 21.1368 26.0777C19.3919 24.5252 18.2301 22.6129 17.885 22.0239C17.5413 21.4423 17.8468 21.1133 18.1376 20.8225C18.4049 20.5552 18.7266 20.1498 19.0247 19.7973C19.3082 19.4448 19.3993 19.2083 19.6063 18.8264C19.7973 18.4137 19.6989 18.0921 19.5535 17.8013C19.4081 17.5104 18.2375 14.6273 17.7484 13.4787C17.2813 12.339 16.7922 12.4844 16.4324 12.4844C16.096 12.4535 15.7053 12.4535 15.3161 12.4535C14.9269 12.4535 14.2909 12.5989 13.7548 13.1571C13.2188 13.746 11.7045 15.1531 11.7045 17.9995C11.7045 20.8533 13.8004 23.6146 14.0912 24.0273C14.3893 24.4092 18.214 30.2842 24.0816 32.8089C25.4813 33.3979 26.5682 33.7504 27.4172 34.0412C28.8169 34.4848 30.0947 34.4231 31.1037 34.2777C32.22 34.0941 34.5612 32.8618 35.0517 31.4856C35.5496 30.1006 35.5496 28.9535 35.4042 28.6935C35.2588 28.4262 34.8769 28.2808 34.288 28.0208L34.263 28.1662ZM23.6219 42.5938H23.5911C20.1175 42.5938 16.6835 41.6523 13.6843 39.8927L12.9808 39.4727L5.63706 41.385L7.61106 34.2395L7.13666 33.5051C5.19712 30.4213 4.16816 26.8523 4.16831 23.2092C4.16831 12.5461 12.8971 3.84812 23.6366 3.84812C28.8389 3.84812 33.7196 5.875 37.3914 9.54688C39.2028 11.3367 40.6396 13.4693 41.618 15.8203C42.5965 18.1713 43.0969 20.6936 43.0902 23.24C43.0755 33.8958 34.3541 42.5938 23.6292 42.5938H23.6219ZM40.1835 6.75478C35.7156 2.43959 29.8406 0 23.5911 0C10.7013 0 0.205625 10.4502 0.198281 23.2929C0.198281 27.3937 1.269 31.3945 3.31938 34.9357L0 47L12.408 43.7643C15.8453 45.6176 19.6875 46.5923 23.5925 46.602H23.5999C36.497 46.602 46.9927 36.1518 47 23.3003C47 17.0816 44.5751 11.2286 40.1542 6.82969L40.1835 6.75478Z" fill="#101010"/>
</svg>
