<svg width="21" height="21" viewBox="0 0 21 21" fill="none" xmlns="http://www.w3.org/2000/svg">
<path d="M17.7938 3.59131C16.8723 2.66058 15.7748 1.92263 14.5653 1.42051C13.3557 0.918379 12.0582 0.662123 10.7485 0.666686C5.26109 0.666686 0.78873 5.13905 0.78873 10.6265C0.78873 12.3853 1.25104 14.0938 2.11536 15.6014L0.708328 20.7672L5.98471 19.3803C7.442 20.1742 9.08019 20.5963 10.7485 20.5963C16.236 20.5963 20.7083 16.124 20.7083 10.6365C20.7083 7.97322 19.6732 5.47071 17.7938 3.59131ZM10.7485 18.9079C9.26109 18.9079 7.8038 18.5059 6.52742 17.7521L6.22592 17.5712L3.09024 18.3953L3.92441 15.3401L3.7234 15.0285C2.89702 13.7089 2.45822 12.1835 2.45707 10.6265C2.45707 6.06367 6.17566 2.34508 10.7385 2.34508C12.9495 2.34508 15.0299 3.2094 16.5877 4.77724C17.3591 5.54504 17.9703 6.45831 18.3861 7.4641C18.8019 8.46989 19.0139 9.5482 19.0098 10.6365C19.0299 15.1993 15.3113 18.9079 10.7485 18.9079ZM15.2912 12.7169C15.04 12.5963 13.8139 11.9933 13.5927 11.9029C13.3616 11.8225 13.2008 11.7823 13.0299 12.0235C12.8591 12.2747 12.3867 12.8375 12.246 12.9983C12.1053 13.1692 11.9546 13.1893 11.7033 13.0586C11.452 12.938 10.648 12.6667 9.7033 11.8225C8.95958 11.1591 8.46712 10.3451 8.31637 10.0938C8.17566 9.84256 8.29627 9.71191 8.42692 9.58126C8.53747 9.4707 8.67818 9.2898 8.79878 9.1491C8.91938 9.00839 8.96963 8.89784 9.05004 8.73704C9.13044 8.56618 9.09024 8.42548 9.02993 8.30488C8.96963 8.18427 8.46712 6.95814 8.26612 6.45563C8.06511 5.97322 7.85406 6.03352 7.7033 6.02347H7.22089C7.05004 6.02347 6.78873 6.08377 6.55757 6.33503C6.33647 6.58628 5.69325 7.1893 5.69325 8.41543C5.69325 9.64156 6.58773 10.8275 6.70833 10.9883C6.82893 11.1591 8.46712 13.6717 10.9596 14.7471C11.5525 15.0084 12.0149 15.1591 12.3767 15.2697C12.9696 15.4607 13.5123 15.4305 13.9445 15.3702C14.4269 15.2998 15.4219 14.7672 15.6229 14.1843C15.834 13.6014 15.834 13.1089 15.7636 12.9983C15.6933 12.8878 15.5425 12.8375 15.2912 12.7169Z" fill="#193454"/>
</svg>
