<svg width="26" height="26" viewBox="0 0 26 26" fill="none" xmlns="http://www.w3.org/2000/svg">
<path d="M22.0651 4.32248C20.9134 3.15907 19.5415 2.23664 18.0295 1.60898C16.5175 0.981317 14.8957 0.660998 13.2586 0.666701C6.39928 0.666701 0.808831 6.25715 0.808831 13.1164C0.808831 15.3149 1.38672 17.4506 2.46712 19.335L0.708328 25.7923L7.3038 24.0587C9.12541 25.0511 11.1732 25.5788 13.2586 25.5788C20.1179 25.5788 25.7083 19.9883 25.7083 13.129C25.7083 9.79987 24.4144 6.67173 22.0651 4.32248ZM13.2586 23.4682C11.3993 23.4682 9.57767 22.9657 7.9822 22.0235L7.60531 21.7974L3.68571 22.8275L4.72843 19.0084L4.47717 18.619C3.44419 16.9694 2.89569 15.0627 2.89426 13.1164C2.89426 7.41293 7.5425 2.76469 13.246 2.76469C16.0098 2.76469 18.6103 3.84509 20.5576 5.80489C21.5217 6.76464 22.2858 7.90623 22.8056 9.16347C23.3253 10.4207 23.5903 11.7686 23.5852 13.129C23.6103 18.8325 18.9621 23.4682 13.2586 23.4682ZM18.937 15.7295C18.6229 15.5788 17.0902 14.825 16.8139 14.7119C16.5249 14.6114 16.3239 14.5612 16.1103 14.8627C15.8968 15.1768 15.3063 15.8803 15.1304 16.0813C14.9546 16.2948 14.7661 16.32 14.452 16.1566C14.138 16.0059 13.1329 15.6667 11.952 14.6114C11.0224 13.7823 10.4068 12.7647 10.2184 12.4506C10.0425 12.1365 10.1933 11.9732 10.3566 11.8099C10.4948 11.6717 10.6706 11.4456 10.8214 11.2697C10.9721 11.0938 11.035 10.9556 11.1355 10.7546C11.236 10.5411 11.1857 10.3652 11.1103 10.2144C11.035 10.0637 10.4068 8.53102 10.1556 7.90288C9.90431 7.29987 9.64049 7.37524 9.45205 7.36268H8.84903C8.63546 7.36268 8.30883 7.43806 8.01988 7.75213C7.7435 8.0662 6.93948 8.81997 6.93948 10.3526C6.93948 11.8853 8.05757 13.3677 8.20833 13.5687C8.35908 13.7823 10.4068 16.923 13.5224 18.2672C14.2636 18.5938 14.8415 18.7823 15.2938 18.9205C16.035 19.1592 16.7134 19.1215 17.2536 19.0461C17.8566 18.9582 19.1003 18.2923 19.3515 17.5637C19.6154 16.835 19.6154 16.2195 19.5274 16.0813C19.4395 15.9431 19.251 15.8803 18.937 15.7295Z" fill="white"/>
</svg>
